<?xml version="1.0" encoding="utf-8"?>
<svg viewBox="-216.55 7.013 903.809 509.145" xmlns="http://www.w3.org/2000/svg">
  <path d="M 79.372 504.099 L 78.42 502.341 C 91.174 495.443 107.046 486.86 115.336 472.773 C 123.509 458.887 123.692 440.031 115.815 423.562 C 109.111 409.547 96.797 396.99 80.204 387.249 C 76.931 385.328 73.495 383.507 70.172 381.746 C 62.141 377.49 53.836 373.088 46.988 366.843 C 37.556 358.242 30.42 343.808 35.739 330.952 C 39.308 322.58 47.329 316.968 56.417 316.485 L 56.529 318.482 C 48.204 318.923 40.855 324.062 37.582 331.73 C 32.639 343.677 39.42 357.235 48.336 365.365 C 54.996 371.439 63.188 375.78 71.109 379.979 C 74.451 381.75 77.906 383.581 81.217 385.525 C 98.155 395.468 110.743 408.322 117.619 422.699 C 125.78 439.759 125.566 459.336 117.06 473.788 C 108.487 488.354 92.344 497.085 79.372 504.099 Z" fill="#f1f1f1" transform="matrix(1, 0, 0, 1, -227.921402, 11.804033)"/>
  <ellipse cx="69.092" cy="318.526" rx="17.5" ry="8.5" fill="#f1f1f1" transform="matrix(1, 0, 0, 1, -227.921402, 11.804033)"/>
  <ellipse cx="83.092" cy="374.526" rx="17.5" ry="8.5" fill="#f1f1f1" transform="matrix(1, 0, 0, 1, -227.921402, 11.804033)"/>
  <ellipse cx="51.092" cy="383.526" rx="17.5" ry="8.5" fill="#f1f1f1" transform="matrix(1, 0, 0, 1, -227.921402, 11.804033)"/>
  <ellipse cx="101.092" cy="430.526" rx="17.5" ry="8.5" fill="#f1f1f1" transform="matrix(1, 0, 0, 1, -227.921402, 11.804033)"/>
  <ellipse cx="136.092" cy="430.526" rx="17.5" ry="8.5" fill="#f1f1f1" transform="matrix(1, 0, 0, 1, -227.921402, 11.804033)"/>
  <rect id="bc1144e2-c94b-4f66-aa77-0b454dfd4174" data-name="Rectangle 62" x="352.384" y="10.638" width="562.796" height="267.056" fill="#e6e6e6" transform="matrix(1, 0, 0, 1, -227.921402, 11.804033)"/>
  <rect id="about-page-screen" data-name="Rectangle 75" x="368.477" y="33.539" width="530.61" height="222.814" fill="#fff" transform="matrix(1, 0, 0, 1, -227.921402, 11.804033)"/>
  <rect id="a1fdfaec-ef9f-458a-9330-7bb8c38fec43" data-name="Rectangle 80" x="352.144" width="562.796" height="23.909" fill="#33454e" y="-4.791" transform="matrix(1, 0, 0, 1, -227.921402, 11.804033)"/>
  <circle id="ac9f2818-2064-46b1-8104-b7d94390836e" data-name="Ellipse 90" cx="369.911" cy="6.268" r="4.431" fill="#fff" transform="matrix(1, 0, 0, 1, -227.921402, 11.804033)"/>
  <circle id="bd067119-2054-4d5f-9303-2e8fa40cc410" data-name="Ellipse 91" cx="386.732" cy="6.268" r="4.431" fill="#fff" transform="matrix(1, 0, 0, 1, -227.921402, 11.804033)"/>
  <circle id="ee5e9ca0-6fca-449b-8f84-cf683813bd65" data-name="Ellipse 92" cx="403.553" cy="6.268" r="4.431" fill="#fff" transform="matrix(1, 0, 0, 1, -227.921402, 11.804033)"/>
  <g id="about-box1" transform="matrix(1, 0, 0, 1, -205.541443, -39.966393)">
    <path id="acae6c4c-8028-4596-98db-d9926d2ed09f-273" data-name="Path 142" d="M 377.884 98.221 C 376.231 98.221 375.198 100.01 376.025 101.441 C 376.408 102.105 377.117 102.514 377.884 102.514 L 495.688 102.514 C 497.34 102.514 498.373 100.725 497.547 99.294 C 497.163 98.63 496.455 98.221 495.688 98.221 L 377.884 98.221 Z" fill="#e6e6e6"/>
    <path id="a061bcdc-636b-4d12-a036-d7339f47b36a-274" data-name="Path 143" d="M 377.884 111.103 C 376.231 111.107 375.202 112.898 376.031 114.328 C 376.415 114.988 377.12 115.395 377.884 115.397 L 438.025 115.397 C 439.678 115.393 440.707 113.602 439.877 112.173 C 439.494 111.512 438.789 111.105 438.025 111.103 L 377.884 111.103 Z" fill="#e6e6e6"/>
  </g>
  <g id="about-box2" transform="matrix(1, 0, 0, 1, -204.010193, -14.459663)">
    <path id="e4e4593e-e83d-4128-8cd7-f0323b36c2f2-275" data-name="Path 142" d="M 374.919 173.457 C 373.267 173.457 372.234 175.246 373.06 176.677 C 373.444 177.341 374.152 177.75 374.919 177.75 L 595.802 177.75 C 597.455 177.75 598.488 175.961 597.662 174.53 C 597.278 173.866 596.569 173.457 595.802 173.457 L 374.919 173.457 Z" fill="#e6e6e6"/>
    <path id="bf45783c-1d79-4b4f-82bb-39fc8a52f7aa-276" data-name="Path 143" d="M 374.919 186.339 C 373.267 186.343 372.238 188.134 373.067 189.563 C 373.45 190.224 374.156 190.631 374.919 190.633 L 538.14 190.633 C 539.792 190.629 540.821 188.838 539.992 187.408 C 539.609 186.748 538.903 186.341 538.14 186.339 L 374.919 186.339 Z" fill="#e6e6e6"/>
    <path id="b544fc92-6fc6-4255-93fb-dee32d880d89-277" data-name="Path 142" d="M 374.919 198.93 C 373.267 198.934 372.238 200.725 373.067 202.154 C 373.45 202.815 374.156 203.222 374.919 203.224 L 595.802 203.224 C 597.455 203.22 598.484 201.429 597.655 199.999 C 597.271 199.339 596.566 198.932 595.802 198.93 L 374.919 198.93 Z" fill="#e6e6e6"/>
    <path id="e14bb681-aaa1-4454-9da9-28d0809a146c-278" data-name="Path 143" d="M 374.919 211.813 C 373.267 211.816 372.238 213.607 373.067 215.037 C 373.45 215.697 374.156 216.105 374.919 216.106 L 538.14 216.106 C 539.792 216.103 540.821 214.311 539.992 212.882 C 539.609 212.221 538.903 211.814 538.14 211.813 L 374.919 211.813 Z" fill="#e6e6e6"/>
  </g>
  <polygon points="174.808 491.907 187.068 491.906 192.9 444.618 174.806 444.619 174.808 491.907" fill="#a0616a" transform="matrix(1, 0, 0, 1, -227.921402, 11.804033)"/>
  <path d="M 171.681 487.904 L 195.825 487.903 L 195.826 487.903 C 204.324 487.903 211.212 494.792 211.213 503.289 L 211.213 503.789 L 171.682 503.791 L 171.681 487.904 Z" fill="#2f2e41" transform="matrix(1, 0, 0, 1, -227.921402, 11.804033)"/>
  <polygon points="220.808 491.907 233.068 491.906 238.9 444.618 220.806 444.619 220.808 491.907" fill="#a0616a" transform="matrix(1, 0, 0, 1, -227.921402, 11.804033)"/>
  <path d="M 217.681 487.904 L 241.825 487.903 L 241.826 487.903 C 250.324 487.903 257.212 494.792 257.213 503.289 L 257.213 503.789 L 217.682 503.791 L 217.681 487.904 Z" fill="#2f2e41" transform="matrix(1, 0, 0, 1, -227.921402, 11.804033)"/>
  <path d="M 137.609 305.049 C 141.882 300.473 140.98 293.148 135.726 289.745 L 144.244 255.04 L 126.752 261.273 L 121.344 293.274 C 117.555 300.072 122.546 308.423 130.328 308.305 C 133.099 308.263 135.731 307.086 137.609 305.049 L 137.609 305.049 Z" fill="#9e616a" transform="matrix(1, 0, 0, 1, -227.921402, 11.804033)"/>
  <polygon points="153.739 280.722 170.732 479.787 195.596 477.52 205.547 323.67 214.405 384.588 216.179 481.354 238.679 479.854 251.173 375.754 248.108 274.937 162.691 266.287 153.739 280.722" fill="#2f2e41" transform="matrix(1, 0, 0, 1, -227.921402, 11.804033)"/>
  <circle cx="200.485" cy="73.791" r="25.786" fill="#a0616a" transform="matrix(1, 0, 0, 1, -227.921402, 11.804033)"/>
  <path d="M 192.319 53.163 C 192.319 53.163 204.352 56.386 210.584 57.675 C 216.816 58.964 216.171 55.311 216.171 55.311 C 216.171 55.311 224.336 56.386 223.907 55.526 C 223.477 54.667 227.345 50.154 222.832 44.997 C 218.32 39.84 219.609 35.972 219.609 35.972 L 215.741 35.972 L 214.667 34.468 L 208.65 34.468 C 208.65 34.468 201.998 28.635 190.179 30.354 C 178.361 32.073 164.384 36.617 163.095 43.708 C 162.92 44.67 162.69 45.738 162.423 46.867 C 159.191 60.511 166.058 73.276 173.179 85.354 C 174.93 88.322 183.396 94.795 183.179 90.354 C 182.963 85.913 175.558 75.94 180.715 75.295 C 185.873 74.651 194.683 61.543 192.319 53.163 Z" fill="#2f2e41" transform="matrix(1, 0, 0, 1, -227.921402, 11.804033)"/>
  <path d="M 173.652 108.385 L 219.064 108.385 L 251.173 277.96 C 251.173 277.96 223.18 280.354 207.18 286.354 C 191.18 292.354 164.581 272.648 164.581 272.648 L 173.652 108.385 Z" fill="#33454e" transform="matrix(1, 0, 0, 1, -227.921402, 11.804033)"/>
  <path d="M 179.321 127.535 L 179.321 108.385 L 174.18 108.354 L 136.613 132.239 L 144.764 263.102 C 144.764 263.102 154.412 306.76 169.046 306.307 C 183.68 305.854 194.963 150.216 179.321 127.535 Z" fill="#2f2e41" transform="matrix(1, 0, 0, 1, -227.921402, 11.804033)"/>
  <path d="M 148.68 135.854 L 136.613 132.239 C 136.613 132.239 127.68 134.854 127.68 143.854 C 127.68 152.854 119.983 280.722 119.983 280.722 L 144.433 282.883 L 149.68 217.854 L 148.68 135.854 Z" fill="#2f2e41" transform="matrix(1, 0, 0, 1, -227.921402, 11.804033)"/>
  <path d="M 215.68 120.854 L 213.274 108.385 L 220.18 107.354 L 245.18 117.354 C 245.18 117.354 267.68 281.854 257.68 286.854 C 247.68 291.854 240.928 287.98 240.928 287.98 C 240.928 287.98 208.036 166.654 213.858 150.254 L 215.68 120.854 Z" fill="#2f2e41" transform="matrix(1, 0, 0, 1, -227.921402, 11.804033)"/>
  <g id="about-page-arm" transform="matrix(1, 0, 0, 1, -227.921402, 11.804033)">
    <g>
      <path d="M 267.75 302.049 C 263.477 297.473 264.379 290.148 269.633 286.745 L 261.115 252.04 L 278.608 258.273 L 284.015 290.274 C 287.804 297.072 282.813 305.423 275.031 305.305 C 272.26 305.263 269.628 304.086 267.75 302.049 Z" fill="#9e616a"/>
      <path d="M 227.68 119.854 L 231.946 117.997 C 231.946 117.997 244.469 111.791 251.574 124.323 C 258.68 136.854 283.68 276.854 283.68 276.854 L 263.109 280.722 L 247.731 230.338 L 227.68 119.854 Z" fill="#2f2e41"/>
    </g>
  </g>
  <path d="M 393.372 504.354 L 12.372 504.354 C 11.603 504.354 11.122 503.521 11.506 502.854 C 11.685 502.545 12.015 502.354 12.372 502.354 L 393.372 502.354 C 394.142 502.354 394.623 503.187 394.238 503.854 C 394.06 504.163 393.73 504.354 393.372 504.354 Z" fill="#cacaca" transform="matrix(1, 0, 0, 1, -227.921402, 11.804033)"/>
</svg>