<svg xmlns="http://www.w3.org/2000/svg" version="1.1" xmlns:xlink="http://www.w3.org/1999/xlink" xmlns:svgjs="http://svgjs.com/svgjs" width="1440" height="1000" preserveAspectRatio="none" viewBox="0 0 1440 1000"><g mask="url(&quot;#SvgjsMask1003&quot;)" fill="none"><rect width="1440" height="1000" x="0" y="0" fill="rgba(85, 207, 219, 1)"></rect><path d="M0,330.705C79.132,326.679,161.449,397.373,231.09,359.582C300.205,322.077,293.336,220.198,330.925,151.129C372.337,75.035,458.916,19.965,463.011,-66.571C467.244,-156.021,413.506,-239.886,352.533,-305.472C292.75,-369.778,213.65,-424.044,125.992,-429.089C43.203,-433.853,-17.188,-352.794,-97.296,-331.359C-180.458,-309.107,-292.202,-367.105,-348.632,-302.091C-405.048,-237.093,-335.815,-135.031,-342.197,-49.201C-347.962,28.331,-400.878,99.507,-384.139,175.43C-365.849,258.386,-325.468,352.054,-246.711,383.889C-167.104,416.067,-85.754,335.068,0,330.705" fill="#2cc2d0"></path><path d="M1440 1364.054C1509.609 1356.105 1581.989 1350.249 1638.313 1308.5810000000001 1693.016 1268.112 1705.833 1195.104 1744.2730000000001 1138.9569999999999 1792.9859999999999 1067.806 1887.8020000000001 1020.666 1894.299 934.682 1900.84 848.108 1839.828 767.876 1776.8229999999999 708.1410000000001 1716.8890000000001 651.318 1631.956 639.059 1553.932 611.982 1471.487 583.371 1390.209 520.6759999999999 1306.364 544.8779999999999 1222.499 569.086 1190.487 668.303 1132.568 733.6089999999999 1073.811 799.86 967.488 843.0260000000001 963.485 931.488 959.419 1021.341 1068.685 1071.155 1113.774 1148.982 1152.955 1216.6109999999999 1145.02 1314.44 1210.274 1357.46 1275.554 1400.497 1362.315 1372.925 1440 1364.054" fill="#80dbe4"></path></g><defs><mask id="SvgjsMask1003"><rect width="1440" height="1000" fill="#ffffff"></rect></mask></defs></svg>